# xmcd CD database file
#
# Track frame offsets:
#	150
#	21121
#	36650
#	54506
#	90315
#
# Disc length: 1516 seconds
#
# Revision: 0
# Processed by: cddbd v1.5.1PL0 Copyright (c) Steve Scherf et al.
# Submitted via: CDex 1.51
#
DISCID=3705ea05
DTITLE=Dark Tranquillity - Lost To Apathy
DYEAR=2004
DGENRE=Heavy Metal
TTITLE0=Lost To Apathy
TTITLE1=Derivation TNB
TTITLE2=The Endless Feed
TTITLE3=Undo Control(live)
TTITLE4=Lost To Apathy(video)
EXTD=YEAR: 2004
EXTT0=
EXTT1=
EXTT2=
EXTT3=
EXTT4=
PLAYORDER=
